<svg width="255" height="44" viewBox="0 0 255 44" fill="none" xmlns="http://www.w3.org/2000/svg">
<path d="M14 0H6C2.68629 0 0 2.68629 0 6V14C0 17.3137 2.68629 20 6 20H14C17.3137 20 20 17.3137 20 14V6C20 2.68629 17.3137 0 14 0Z" fill="white"/>
<path d="M38 0H30C26.6863 0 24 2.68629 24 6V14C24 17.3137 26.6863 20 30 20H38C41.3137 20 44 17.3137 44 14V6C44 2.68629 41.3137 0 38 0Z" fill="white"/>
<path d="M38 24H30C26.6863 24 24 26.6863 24 30V38C24 41.3137 26.6863 44 30 44H38C41.3137 44 44 41.3137 44 38V30C44 26.6863 41.3137 24 38 24Z" fill="white"/>
<path d="M14 24H6C2.68629 24 0 26.6863 0 30V38C0 41.3137 2.68629 44 6 44H14C17.3137 44 20 41.3137 20 38V30C20 26.6863 17.3137 24 14 24Z" fill="white"/>
<path d="M31 22C31 17.0294 26.9706 13 22 13C17.0294 13 13 17.0294 13 22C13 26.9706 17.0294 31 22 31C26.9706 31 31 26.9706 31 22Z" fill="white" stroke="#FF7EED" stroke-width="2"/>
<path d="M91.0638 6.64009V37.0002H83.6684V18.7928L76.8784 37.0002H70.9102L64.077 18.7495V37.0002H56.6816V6.64009H65.4177L73.9376 27.6586L82.3709 6.64009H91.0638ZM119.13 24.5448C119.13 25.2367 119.087 25.9575 119 26.7072H102.263C102.379 28.2064 102.855 29.3597 103.691 30.167C104.556 30.9455 105.608 31.3347 106.848 31.3347C108.693 31.3347 109.976 30.5562 110.697 28.9993H118.568C118.164 30.5851 117.429 32.0123 116.362 33.2809C115.324 34.5495 114.013 35.5442 112.427 36.265C110.841 36.9858 109.068 37.3462 107.107 37.3462C104.743 37.3462 102.638 36.8416 100.793 35.8325C98.948 34.8234 97.5064 33.3818 96.4684 31.5077C95.4305 29.6336 94.9115 27.4424 94.9115 24.934C94.9115 22.4256 95.4161 20.2344 96.4252 18.3603C97.4631 16.4862 98.9047 15.0446 100.75 14.0355C102.595 13.0264 104.714 12.5218 107.107 12.5218C109.443 12.5218 111.519 13.0119 113.335 13.9922C115.151 14.9725 116.564 16.3709 117.573 18.1873C118.611 20.0037 119.13 22.1229 119.13 24.5448ZM111.562 22.5986C111.562 21.33 111.129 20.3209 110.264 19.5712C109.399 18.8216 108.318 18.4468 107.021 18.4468C105.781 18.4468 104.729 18.8072 103.864 19.528C103.028 20.2488 102.509 21.2723 102.307 22.5986H111.562ZM136.482 30.7292V37.0002H132.719C130.038 37.0002 127.948 36.3515 126.448 35.054C124.949 33.7278 124.199 31.5798 124.199 28.6101V19.009H121.258V12.8678H124.199V6.98607H131.595V12.8678H136.439V19.009H131.595V28.6966C131.595 29.4174 131.768 29.9364 132.114 30.2535C132.46 30.5707 133.036 30.7292 133.844 30.7292H136.482ZM139.131 24.8907C139.131 22.4112 139.592 20.2344 140.515 18.3603C141.466 16.4862 142.749 15.0446 144.364 14.0355C145.978 13.0264 147.78 12.5218 149.77 12.5218C151.471 12.5218 152.956 12.8678 154.224 13.5598C155.522 14.2517 156.516 15.1599 157.208 16.2844V12.8678H164.604V37.0002H157.208V33.5836C156.488 34.7081 155.479 35.6163 154.181 36.3082C152.912 37.0002 151.428 37.3462 149.727 37.3462C147.766 37.3462 145.978 36.8416 144.364 35.8325C142.749 34.7945 141.466 33.3385 140.515 31.4644C139.592 29.5615 139.131 27.3703 139.131 24.8907ZM157.208 24.934C157.208 23.0887 156.689 21.6327 155.652 20.5659C154.642 19.4992 153.403 18.9658 151.932 18.9658C150.462 18.9658 149.208 19.4992 148.17 20.5659C147.16 21.6039 146.656 23.0455 146.656 24.8907C146.656 26.736 147.16 28.2064 148.17 29.302C149.208 30.3688 150.462 30.9022 151.932 30.9022C153.403 30.9022 154.642 30.3688 155.652 29.302C156.689 28.2353 157.208 26.7792 157.208 24.934ZM180.939 37.3029C178.719 37.3029 176.73 36.9425 174.971 36.2217C173.212 35.5009 171.799 34.4341 170.733 33.0214C169.695 31.6086 169.147 29.9075 169.089 27.9181H176.96C177.076 29.0426 177.465 29.9075 178.128 30.513C178.791 31.0896 179.656 31.378 180.723 31.378C181.818 31.378 182.683 31.1329 183.318 30.6427C183.952 30.1238 184.269 29.4174 184.269 28.5236C184.269 27.7739 184.01 27.1541 183.491 26.6639C183.001 26.1738 182.381 25.7701 181.631 25.453C180.91 25.1358 179.872 24.7754 178.517 24.3718C176.557 23.7663 174.956 23.1608 173.717 22.5554C172.477 21.9499 171.41 21.0561 170.516 19.874C169.623 18.6919 169.176 17.1493 169.176 15.2464C169.176 12.4209 170.199 10.2152 172.246 8.6295C174.293 7.0149 176.96 6.20761 180.247 6.20761C183.592 6.20761 186.287 7.0149 188.335 8.6295C190.382 10.2152 191.477 12.4353 191.621 15.2897H183.62C183.563 14.3094 183.202 13.5453 182.539 12.9975C181.876 12.4209 181.026 12.1326 179.988 12.1326C179.094 12.1326 178.373 12.3776 177.825 12.8678C177.277 13.3291 177.004 14.0067 177.004 14.9004C177.004 15.8807 177.465 16.6448 178.387 17.1926C179.31 17.7404 180.752 18.3315 182.712 18.9658C184.673 19.6289 186.259 20.2632 187.47 20.8687C188.709 21.4741 189.776 22.3535 190.67 23.5068C191.564 24.6601 192.011 26.1449 192.011 27.9614C192.011 29.6913 191.564 31.2626 190.67 32.6754C189.805 34.0882 188.536 35.2126 186.864 36.0487C185.192 36.8849 183.217 37.3029 180.939 37.3029ZM207.547 37.3462C205.183 37.3462 203.049 36.8416 201.146 35.8325C199.272 34.8234 197.787 33.3818 196.692 31.5077C195.625 29.6336 195.091 27.4424 195.091 24.934C195.091 22.4544 195.639 20.2776 196.735 18.4035C197.83 16.5006 199.33 15.0446 201.233 14.0355C203.136 13.0264 205.269 12.5218 207.633 12.5218C209.998 12.5218 212.131 13.0264 214.034 14.0355C215.937 15.0446 217.436 16.5006 218.532 18.4035C219.627 20.2776 220.175 22.4544 220.175 24.934C220.175 27.4135 219.613 29.6048 218.489 31.5077C217.393 33.3818 215.879 34.8234 213.948 35.8325C212.045 36.8416 209.911 37.3462 207.547 37.3462ZM207.547 30.9455C208.96 30.9455 210.156 30.4265 211.136 29.3885C212.146 28.3506 212.65 26.8657 212.65 24.934C212.65 23.0022 212.16 21.5174 211.18 20.4794C210.228 19.4415 209.046 18.9225 207.633 18.9225C206.192 18.9225 204.995 19.4415 204.044 20.4794C203.092 21.4886 202.617 22.9734 202.617 24.934C202.617 26.8657 203.078 28.3506 204 29.3885C204.952 30.4265 206.134 30.9455 207.547 30.9455ZM236.208 19.009H232.229V37.0002H224.834V19.009H222.152V12.8678H224.834V12.1758C224.834 9.20614 225.684 6.95724 227.385 5.42914C229.087 3.87221 231.581 3.09375 234.867 3.09375C235.415 3.09375 235.819 3.10816 236.078 3.13699V9.40796C234.666 9.32147 233.671 9.52329 233.094 10.0134C232.518 10.5036 232.229 11.3829 232.229 12.6515V12.8678H236.208V19.009ZM253.133 30.7292V37.0002H249.371C246.689 37.0002 244.599 36.3515 243.1 35.054C241.6 33.7278 240.851 31.5798 240.851 28.6101V19.009H237.91V12.8678H240.851V6.98607H248.246V12.8678H253.09V19.009H248.246V28.6966C248.246 29.4174 248.419 29.9364 248.765 30.2535C249.111 30.5707 249.688 30.7292 250.495 30.7292H253.133Z" fill="white"/>
</svg>
