<svg width="44" height="44" viewBox="0 0 44 44" fill="none" xmlns="http://www.w3.org/2000/svg">
<path d="M14 0H6C2.68629 0 0 2.68629 0 6V14C0 17.3137 2.68629 20 6 20H14C17.3137 20 20 17.3137 20 14V6C20 2.68629 17.3137 0 14 0Z" fill="#FF7EED"/>
<path d="M38 0H30C26.6863 0 24 2.68629 24 6V14C24 17.3137 26.6863 20 30 20H38C41.3137 20 44 17.3137 44 14V6C44 2.68629 41.3137 0 38 0Z" fill="#FF7EED"/>
<path d="M38 24H30C26.6863 24 24 26.6863 24 30V38C24 41.3137 26.6863 44 30 44H38C41.3137 44 44 41.3137 44 38V30C44 26.6863 41.3137 24 38 24Z" fill="#FF7EED"/>
<path d="M14 24H6C2.68629 24 0 26.6863 0 30V38C0 41.3137 2.68629 44 6 44H14C17.3137 44 20 41.3137 20 38V30C20 26.6863 17.3137 24 14 24Z" fill="#FF7EED"/>
<path d="M31 22C31 17.0294 26.9706 13 22 13C17.0294 13 13 17.0294 13 22C13 26.9706 17.0294 31 22 31C26.9706 31 31 26.9706 31 22Z" fill="#FF7EED" stroke="white" stroke-width="2"/>
</svg>
