<svg width="255" height="44" viewBox="0 0 255 44" fill="none" xmlns="http://www.w3.org/2000/svg">
<rect width="20" height="20" rx="6" fill="white"/>
<rect x="24" width="20" height="20" rx="6" fill="white"/>
<rect x="24" y="24" width="20" height="20" rx="6" fill="white"/>
<rect y="24" width="20" height="20" rx="6" fill="white"/>
<rect x="13" y="13" width="18" height="18" rx="9" fill="white" stroke="black" stroke-width="2"/>
<path d="M91.0636 6.63987V37H83.6682V18.7926L76.8782 37H70.91L64.0768 18.7493V37H56.6814V6.63987H65.4175L73.9374 27.6584L82.3707 6.63987H91.0636ZM119.13 24.5446C119.13 25.2365 119.087 25.9573 119 26.707H102.263C102.379 28.2062 102.855 29.3595 103.691 30.1668C104.556 30.9453 105.608 31.3345 106.848 31.3345C108.693 31.3345 109.976 30.556 110.697 28.9991H118.568C118.164 30.5849 117.429 32.0121 116.362 33.2807C115.324 34.5493 114.013 35.544 112.427 36.2648C110.841 36.9856 109.068 37.346 107.107 37.346C104.743 37.346 102.638 36.8414 100.793 35.8323C98.9478 34.8232 97.5062 33.3816 96.4682 31.5075C95.4303 29.6334 94.9113 27.4422 94.9113 24.9338C94.9113 22.4254 95.4159 20.2342 96.425 18.3601C97.4629 16.486 98.9045 15.0444 100.75 14.0353C102.595 13.0262 104.714 12.5216 107.107 12.5216C109.443 12.5216 111.519 13.0117 113.335 13.992C115.151 14.9723 116.564 16.3707 117.573 18.1871C118.611 20.0035 119.13 22.1227 119.13 24.5446ZM111.562 22.5984C111.562 21.3298 111.129 20.3207 110.264 19.571C109.399 18.8214 108.318 18.4466 107.021 18.4466C105.781 18.4466 104.729 18.807 103.864 19.5278C103.028 20.2486 102.509 21.2721 102.307 22.5984H111.562ZM136.482 30.729V37H132.719C130.038 37 127.948 36.3513 126.448 35.0538C124.949 33.7276 124.199 31.5796 124.199 28.6099V19.0088H121.258V12.8676H124.199V6.98585H131.595V12.8676H136.439V19.0088H131.595V28.6964C131.595 29.4172 131.768 29.9362 132.114 30.2533C132.46 30.5705 133.036 30.729 133.844 30.729H136.482ZM139.131 24.8905C139.131 22.411 139.592 20.2342 140.515 18.3601C141.466 16.486 142.749 15.0444 144.364 14.0353C145.978 13.0262 147.78 12.5216 149.77 12.5216C151.471 12.5216 152.956 12.8676 154.224 13.5596C155.522 14.2515 156.516 15.1597 157.208 16.2842V12.8676H164.604V37H157.208V33.5834C156.488 34.7079 155.479 35.6161 154.181 36.308C152.912 37 151.428 37.346 149.727 37.346C147.766 37.346 145.978 36.8414 144.364 35.8323C142.749 34.7943 141.466 33.3383 140.515 31.4642C139.592 29.5613 139.131 27.3701 139.131 24.8905ZM157.208 24.9338C157.208 23.0885 156.689 21.6325 155.652 20.5657C154.642 19.499 153.403 18.9656 151.932 18.9656C150.462 18.9656 149.208 19.499 148.17 20.5657C147.16 21.6037 146.656 23.0453 146.656 24.8905C146.656 26.7358 147.16 28.2062 148.17 29.3018C149.208 30.3686 150.462 30.902 151.932 30.902C153.403 30.902 154.642 30.3686 155.652 29.3018C156.689 28.2351 157.208 26.779 157.208 24.9338ZM180.939 37.3027C178.719 37.3027 176.73 36.9423 174.971 36.2215C173.212 35.5007 171.799 34.4339 170.733 33.0212C169.695 31.6084 169.147 29.9073 169.089 27.9179H176.96C177.076 29.0424 177.465 29.9073 178.128 30.5128C178.791 31.0894 179.656 31.3778 180.723 31.3778C181.818 31.3778 182.683 31.1327 183.318 30.6425C183.952 30.1236 184.269 29.4172 184.269 28.5234C184.269 27.7737 184.01 27.1539 183.491 26.6637C183.001 26.1736 182.381 25.7699 181.631 25.4528C180.91 25.1356 179.872 24.7752 178.517 24.3716C176.557 23.7661 174.956 23.1606 173.717 22.5552C172.477 21.9497 171.41 21.0559 170.516 19.8738C169.623 18.6917 169.176 17.1491 169.176 15.2462C169.176 12.4207 170.199 10.215 172.246 8.62928C174.293 7.01468 176.96 6.20739 180.247 6.20739C183.592 6.20739 186.287 7.01468 188.335 8.62928C190.382 10.215 191.477 12.4351 191.621 15.2895H183.62C183.563 14.3092 183.202 13.5451 182.539 12.9973C181.876 12.4207 181.026 12.1324 179.988 12.1324C179.094 12.1324 178.373 12.3774 177.825 12.8676C177.277 13.3289 177.004 14.0065 177.004 14.9002C177.004 15.8805 177.465 16.6446 178.387 17.1924C179.31 17.7402 180.752 18.3313 182.712 18.9656C184.673 19.6287 186.259 20.263 187.47 20.8685C188.709 21.4739 189.776 22.3533 190.67 23.5066C191.564 24.6599 192.011 26.1447 192.011 27.9612C192.011 29.6911 191.564 31.2624 190.67 32.6752C189.805 34.088 188.536 35.2124 186.864 36.0485C185.192 36.8847 183.217 37.3027 180.939 37.3027ZM207.547 37.346C205.183 37.346 203.049 36.8414 201.146 35.8323C199.272 34.8232 197.787 33.3816 196.692 31.5075C195.625 29.6334 195.091 27.4422 195.091 24.9338C195.091 22.4542 195.639 20.2774 196.735 18.4033C197.83 16.5004 199.33 15.0444 201.233 14.0353C203.136 13.0262 205.269 12.5216 207.633 12.5216C209.998 12.5216 212.131 13.0262 214.034 14.0353C215.937 15.0444 217.436 16.5004 218.532 18.4033C219.627 20.2774 220.175 22.4542 220.175 24.9338C220.175 27.4133 219.613 29.6046 218.489 31.5075C217.393 33.3816 215.879 34.8232 213.948 35.8323C212.045 36.8414 209.911 37.346 207.547 37.346ZM207.547 30.9453C208.96 30.9453 210.156 30.4263 211.136 29.3883C212.146 28.3504 212.65 26.8655 212.65 24.9338C212.65 23.002 212.16 21.5172 211.18 20.4792C210.228 19.4413 209.046 18.9223 207.633 18.9223C206.192 18.9223 204.995 19.4413 204.044 20.4792C203.092 21.4884 202.617 22.9732 202.617 24.9338C202.617 26.8655 203.078 28.3504 204 29.3883C204.952 30.4263 206.134 30.9453 207.547 30.9453ZM236.208 19.0088H232.229V37H224.834V19.0088H222.152V12.8676H224.834V12.1756C224.834 9.20592 225.684 6.95702 227.385 5.42892C229.087 3.87199 231.581 3.09353 234.867 3.09353C235.415 3.09353 235.819 3.10794 236.078 3.13677V9.40774C234.666 9.32125 233.671 9.52307 233.094 10.0132C232.518 10.5034 232.229 11.3827 232.229 12.6513V12.8676H236.208V19.0088ZM253.133 30.729V37H249.371C246.689 37 244.599 36.3513 243.1 35.0538C241.6 33.7276 240.851 31.5796 240.851 28.6099V19.0088H237.91V12.8676H240.851V6.98585H248.246V12.8676H253.09V19.0088H248.246V28.6964C248.246 29.4172 248.419 29.9362 248.765 30.2533C249.111 30.5705 249.688 30.729 250.495 30.729H253.133Z" fill="white"/>
</svg>
